<svg width="289" height="189" viewBox="0 0 289 189" fill="none" xmlns="http://www.w3.org/2000/svg">
<path d="M283.909 44.5921L279.404 66.374L276.507 63.5516L271.573 67.0635L267.804 62.3912L259.348 68.5295L252.127 56.4639L244.067 61.1772L240.872 56.7765L230.64 62.5341L227.561 55.9526L234.733 21.261L273.188 29.1895L283.909 44.5921Z" fill="#EBEBEB"/>
<path d="M273.19 29.1899L283.911 44.5906L270.574 41.8411L273.19 29.1899Z" fill="#DBDBDB"/>
<path d="M278.447 70.7276L271.841 102.686L220.047 92.0094L226.603 60.3062L229.682 66.8872L239.916 61.1296L243.11 65.5307L251.17 60.8175L258.391 72.8826L266.848 66.7443L270.616 71.4166L275.55 67.9052L278.447 70.7276Z" fill="#EBEBEB"/>
<path d="M204.313 66.9826L151.528 70.2445L147.335 2.57965L186.528 0.157715L200.919 12.211L204.313 66.9826Z" fill="#EBEBEB"/>
<path d="M186.528 0.157715L200.92 12.211L187.328 13.0509L186.528 0.157715Z" fill="#DBDBDB"/>
<path d="M171.895 45.6838L171.691 44.1577C171.158 40.9941 172.026 37.4564 174.779 33.7546C177.26 30.4815 178.607 28.0995 178.458 25.4473C178.29 22.4407 176.288 20.5418 172.566 20.6908C170.44 20.8097 168.119 21.6492 166.705 22.8519L165.08 19.2169C166.949 17.6931 170.261 16.5618 173.39 16.3865C180.179 16.0068 183.483 20.0211 183.734 24.5007C183.959 28.5098 181.878 31.5235 179.233 35.0424C176.807 38.2531 176.008 40.9001 176.354 43.8964L176.499 45.4258L171.895 45.6838ZM171.059 54.0095C170.937 51.8282 172.326 50.2128 174.392 50.0972C176.458 49.9816 177.961 51.4353 178.084 53.6166C178.199 55.6799 176.931 57.3475 174.747 57.4697C172.681 57.5853 171.175 56.0729 171.059 54.0095Z" fill="#DBDBDB"/>
<path d="M39.8851 34.1767L34.5732 31.7712L33.8366 33.3956C33.6201 33.8731 33.1508 34.1781 32.6261 34.2012C32.3361 34.2139 32.0462 34.2425 31.7577 34.2862C31.2399 34.3652 30.7213 34.157 30.4163 33.7321L29.3766 32.2826L24.6337 35.676L25.6734 37.1251C25.9784 37.5504 26.0089 38.1074 25.768 38.5718C25.6334 38.8303 25.5133 39.0953 25.4079 39.3656C25.2173 39.8544 24.7772 40.1998 24.2548 40.2511L22.4775 40.425L23.0503 46.2211L24.8337 46.0439C25.3566 45.9917 25.8513 46.2516 26.1351 46.6934C26.2123 46.8133 26.2928 46.9317 26.3761 47.0483C26.4598 47.1649 26.546 47.2791 26.6349 47.3905C26.9606 47.7989 27.0482 48.3474 26.8326 48.823L26.0908 50.4591L31.4028 52.8646L32.1427 51.237C32.3597 50.7595 32.8299 50.4549 33.3546 50.4323C33.6436 50.4201 33.9322 50.3919 34.2197 50.3487C34.737 50.2707 35.2547 50.4784 35.5597 50.9033L36.5999 52.3533L41.3428 48.9598L40.3026 47.5098C39.9981 47.085 39.967 46.5285 40.2076 46.0646C40.3412 45.807 40.4603 45.5429 40.5648 45.2736C40.7549 44.7848 41.1945 44.4384 41.7174 44.3867L43.4985 44.2104L42.9256 38.4143L41.1437 38.5901C40.6227 38.6413 40.1294 38.3823 39.8466 37.9419C39.7689 37.8216 39.6879 37.7022 39.6037 37.5843C39.5199 37.4677 39.4338 37.3535 39.3448 37.2421C39.0172 36.8318 38.9297 36.2805 39.1467 35.8025L39.8851 34.1767ZM36.8719 39.539C38.4087 41.6808 37.9159 44.6583 35.7715 46.1929C33.6267 47.7275 30.6412 47.2382 29.1045 45.0964C27.5678 42.9546 28.0615 39.9705 30.2064 38.4359C32.3507 36.9018 35.3352 37.3977 36.8719 39.539Z" fill="#EBEBEB"/>
<path d="M279.88 111.069L276.34 113.108L276.966 114.19C277.15 114.508 277.133 114.899 276.932 115.207C276.821 115.377 276.719 115.553 276.626 115.735C276.46 116.062 276.129 116.272 275.763 116.272H274.512V120.354H275.763C276.129 120.354 276.46 120.564 276.626 120.89C276.719 121.072 276.821 121.248 276.932 121.419C277.133 121.726 277.151 122.117 276.966 122.436L276.34 123.517L279.88 125.557L280.506 124.47C280.69 124.151 281.04 123.976 281.407 123.995C281.507 124 281.607 124.002 281.708 124.002C281.809 124.002 281.909 124 282.009 123.995C282.375 123.976 282.723 124.15 282.907 124.467L283.537 125.556L287.076 123.517L286.449 122.432C286.265 122.114 286.284 121.722 286.485 121.415C286.596 121.246 286.698 121.07 286.79 120.889C286.957 120.563 287.287 120.353 287.653 120.353H288.904V116.272H287.653C287.287 116.272 286.957 116.062 286.79 115.736C286.698 115.555 286.596 115.379 286.485 115.21C286.284 114.902 286.266 114.511 286.449 114.192L287.076 113.107L283.537 111.068L282.91 112.153C282.726 112.471 282.377 112.645 282.011 112.627C281.911 112.621 281.81 112.619 281.708 112.619C281.607 112.619 281.507 112.621 281.407 112.627C281.039 112.645 280.689 112.47 280.505 112.152L279.88 111.069ZM281.709 114.971C283.557 114.971 285.054 116.466 285.054 118.311C285.054 120.157 283.557 121.655 281.709 121.655C279.86 121.655 278.36 120.157 278.36 118.311C278.36 116.466 279.86 114.971 281.709 114.971Z" fill="#EBEBEB"/>
<path d="M50.6267 16.8095L47.381 19.2879L48.1412 20.2796C48.3647 20.5714 48.3977 20.9615 48.2386 21.2924C48.1501 21.4753 48.072 21.6633 48.0037 21.856C47.8813 22.201 47.5806 22.4519 47.2168 22.4994L45.9766 22.6606L46.5042 26.7083L47.7444 26.5471C48.1082 26.4996 48.4631 26.6655 48.6697 26.9677C48.785 27.1365 48.9088 27.2982 49.0411 27.4523C49.2802 27.7315 49.3479 28.1174 49.2067 28.4563L48.7262 29.6097L52.4991 31.1757L52.9796 30.0176C53.1208 29.6783 53.4451 29.4592 53.8122 29.4301C53.912 29.4221 54.0118 29.4118 54.1116 29.3991C54.2113 29.3859 54.3107 29.3709 54.4086 29.3526C54.7691 29.2868 55.1371 29.4146 55.3598 29.7051L56.1255 30.7043L59.3717 28.226L58.6107 27.231C58.3871 26.9391 58.3546 26.5485 58.5146 26.2176C58.6027 26.0353 58.6808 25.8482 58.749 25.6564C58.8719 25.3119 59.1722 25.0614 59.5355 25.0139L60.7762 24.8527L60.2486 20.805L59.0079 20.9662C58.6446 21.0137 58.2901 20.8483 58.083 20.5461C57.9682 20.3783 57.8444 20.2175 57.7126 20.0638C57.4731 19.7847 57.4043 19.3988 57.5455 19.0594L58.0266 17.9032L54.2532 16.3372L53.7717 17.4938C53.631 17.8322 53.3072 18.0503 52.9415 18.079C52.8417 18.087 52.741 18.0973 52.6398 18.1105C52.54 18.1237 52.4407 18.1387 52.3423 18.1566C51.9799 18.2228 51.6104 18.094 51.3864 17.8017L50.6267 16.8095ZM52.9443 20.4427C54.7771 20.2044 56.455 21.4941 56.6936 23.3243C56.9323 25.1545 55.6412 26.8333 53.8085 27.0716C51.9757 27.3099 50.294 26.0174 50.0554 24.1872C49.8167 22.357 51.1115 20.681 52.9443 20.4427Z" fill="#EBEBEB"/>
<path d="M26.3946 122.852C26.58 118.304 26.5056 113.747 26.2072 109.206C25.5916 99.8379 24.0474 90.5431 21.9265 81.4029C20.7329 76.2577 19.2626 71.2 17.731 66.1475C17.6849 65.9947 17.4411 66.0379 17.4834 66.1968C22.2202 84.0081 26.1065 102.389 25.8392 120.904C25.7643 126.085 25.1638 131.175 24.671 136.324C24.6578 136.461 24.8847 136.516 24.9162 136.375C25.8933 131.969 26.211 127.352 26.3946 122.852Z" fill="#EBEBEB"/>
<path d="M17.4825 66.1973C17.4825 66.1973 10.3067 84.3855 11.9131 88.6607C13.52 92.9359 16.8321 93.8477 16.8321 93.8477C16.8321 93.8477 12.4417 100.107 15.5095 105.978C18.5778 111.849 25.3944 111.572 25.8472 118.228C25.8472 118.228 26.227 90.3946 17.4825 66.1973Z" fill="#EBEBEB"/>
<path d="M25.0676 106.735C25.0766 106.705 25.0742 106.672 25.0601 106.64C24.0524 94.2727 21.8553 81.9439 18.0999 70.0514C18.089 70.0161 18.0311 70.0274 18.0406 70.0641C19.4624 75.3845 20.7276 80.7337 21.8087 86.1119C20.8768 85.1536 19.6578 84.6028 18.3832 84.2047C18.3592 84.1971 18.3474 84.2315 18.37 84.2413C19.6973 84.8143 20.9686 85.4784 21.9066 86.6012C22.1161 87.6554 22.3213 88.7101 22.5161 89.7662C20.9126 87.9765 18.6887 87.0886 16.4634 86.2445C16.4318 86.2327 16.4153 86.2807 16.4459 86.2934C18.7635 87.2357 21.0721 88.4498 22.6423 90.444C23.1896 93.4624 23.6688 96.4916 24.0834 99.5297C22.911 98.3067 21.4642 97.4847 19.8046 97.0809C19.7547 97.0687 19.727 97.1425 19.7773 97.1571C21.4825 97.6473 22.9491 98.6005 24.1169 99.9329C24.1253 99.9423 24.1343 99.947 24.1437 99.9531C24.2872 101.022 24.4228 102.092 24.5499 103.164C23.6471 102.395 22.6493 101.81 21.5508 101.357C21.5216 101.345 21.5061 101.39 21.5343 101.403C22.6503 101.877 23.6542 102.561 24.5381 103.388C24.5508 103.4 24.5635 103.398 24.5762 103.403C24.6958 104.421 24.8149 105.44 24.9179 106.461C23.273 104.482 21.2387 103.049 18.8317 102.122C18.7847 102.103 18.7607 102.175 18.8059 102.195C21.146 103.211 23.2089 104.821 24.804 106.804C24.8478 106.858 24.9048 106.867 24.9551 106.851C25.1104 108.417 25.2493 109.984 25.3641 111.555C25.3655 111.576 25.4008 111.578 25.3999 111.557C25.31 109.949 25.1975 108.342 25.0676 106.735Z" fill="white"/>
<path d="M19.3016 82.3964C18.0572 81.5424 16.4758 81.1777 14.9903 81.0541C14.9546 81.0512 14.9517 81.1039 14.9866 81.1086C16.5318 81.3379 17.8299 81.8963 19.2494 82.4989C19.311 82.5256 19.3553 82.4335 19.3016 82.3964Z" fill="white"/>
<path d="M20.1731 101.653C19.1884 101.063 18.0649 100.729 16.9368 100.548C16.8972 100.541 16.8939 100.602 16.9325 100.609C18.0781 100.816 19.0929 101.223 20.134 101.73C20.1782 101.752 20.215 101.678 20.1731 101.653Z" fill="white"/>
<path d="M45.2589 88.9573C42.2664 91.0582 39.3943 93.4811 36.9535 96.2071C34.3516 99.1127 32.4539 102.411 31.1285 106.072C28.4132 113.571 26.925 121.694 26.7894 129.664C26.7132 134.132 27.1114 138.565 28.0687 142.932C28.1035 143.091 28.3412 143.046 28.3172 142.885C27.1471 135.202 27.19 127.362 28.4471 119.693C29.6807 112.169 31.6166 103.983 36.4061 97.8681C39.014 94.5386 42.2659 91.9188 45.4805 89.2115C45.6486 89.0691 45.4325 88.8351 45.2589 88.9573Z" fill="#EBEBEB"/>
<path d="M27.8447 124.246C27.8447 124.246 30.3091 120.102 33.8989 116.518C37.4887 112.934 40.5122 110.387 40.9787 108.017C41.4456 105.647 37.3828 103.901 37.3828 103.901C37.3828 103.901 42.3507 104.792 43.71 102.71C45.0692 100.628 45.7254 88.5696 45.7254 88.5696C45.7254 88.5696 36.6881 95.0129 32.477 104.045C28.2664 113.077 27.8447 124.246 27.8447 124.246Z" fill="#EBEBEB"/>
<path d="M42.599 91.6614C38.7965 95.3909 34.9695 99.3652 32.7301 104.265C31.9624 105.945 31.3091 107.687 30.7339 109.462C30.7325 109.465 30.7325 109.468 30.7311 109.47C30.6158 109.826 30.4986 110.182 30.3899 110.541C30.3791 110.558 30.3734 110.578 30.3715 110.599C29.2645 114.259 28.4818 118.043 27.8041 121.739C27.7998 121.763 27.8361 121.776 27.8408 121.751C28.23 119.87 28.6597 117.97 29.1393 116.076C29.1563 116.076 29.1746 116.073 29.1935 116.065C29.9621 115.743 30.7354 115.54 31.5652 115.464C31.6193 115.459 31.615 115.365 31.56 115.368C30.7594 115.407 29.9752 115.547 29.2142 115.795C29.6519 114.087 30.1277 112.384 30.6629 110.706C32.4076 110.279 34.2286 110.048 36.0228 110.006C36.0412 110.005 36.0445 109.978 36.0252 109.977C34.2164 109.892 32.5164 110.048 30.7547 110.424C30.8479 110.135 30.9448 109.849 31.0413 109.562C32.2194 109.294 33.4026 109.069 34.608 108.959C34.6297 108.957 34.6278 108.92 34.6061 108.92C33.4257 108.952 32.2622 109.076 31.1138 109.344C31.6056 107.891 32.137 106.459 32.7263 105.063C33.2139 103.909 33.7938 102.813 34.4324 101.755C35.3987 101.536 36.3354 101.328 37.3256 101.24C37.3529 101.237 37.3501 101.194 37.3233 101.192C36.4243 101.133 35.4882 101.201 34.6184 101.459C35.0937 100.692 35.5931 99.941 36.1278 99.2134C38.1545 98.7651 40.2089 98.3491 42.2822 98.7378C42.318 98.7444 42.3312 98.6842 42.2959 98.6753C40.3224 98.1569 38.3635 98.4563 36.3998 98.844C36.614 98.5592 36.8333 98.2781 37.0545 97.9985C38.2985 97.6145 39.5359 97.4284 40.841 97.4044C40.8679 97.4039 40.8721 97.3654 40.8443 97.3625C39.6531 97.2488 38.4651 97.364 37.3139 97.6756C38.9894 95.5967 40.8401 93.6443 42.6696 91.7136C42.7552 91.6252 42.6894 91.573 42.599 91.6614Z" fill="white"/>
<path d="M42.4982 99.8807C41.9033 99.8172 41.2985 99.751 40.7008 99.8182C40.6283 99.8262 40.6344 99.9441 40.7073 99.946C41.3023 99.9634 41.8972 99.9192 42.4921 99.9512C42.5378 99.954 42.5434 99.8854 42.4982 99.8807Z" fill="white"/>
<path d="M35.9924 111.578C35.0425 111.567 34.0942 111.822 33.2069 112.137C33.1848 112.145 33.1971 112.182 33.2201 112.176C34.1398 111.958 35.0703 111.869 35.9994 111.716C36.0757 111.703 36.0719 111.579 35.9924 111.578Z" fill="white"/>
<path d="M34.0433 107.537C33.6578 107.517 33.2408 107.585 32.861 107.644C32.8219 107.65 32.8243 107.713 32.8648 107.714C33.2488 107.721 33.6715 107.731 34.0499 107.659C34.1167 107.646 34.1139 107.541 34.0433 107.537Z" fill="white"/>
<path d="M1.35232 101.754C4.26056 102.763 7.14528 104.061 9.75183 105.704C12.5302 107.455 14.8294 109.686 16.7492 112.342C20.6821 117.785 23.7669 124.016 25.7216 130.434C26.8173 134.032 27.5214 137.711 27.7572 141.466C27.7657 141.603 27.5628 141.621 27.5454 141.486C26.7137 134.998 24.8645 128.663 22.072 122.747C19.3323 116.942 15.871 110.764 10.5793 106.921C7.69785 104.828 4.46013 103.459 1.23183 102.01C1.06286 101.934 1.18335 101.695 1.35232 101.754Z" fill="#EBEBEB"/>
<path d="M23.6128 126.293C23.6128 126.293 20.6589 123.508 16.9246 121.436C13.1899 119.364 10.1536 118.001 9.22733 116.19C8.30106 114.38 11.1848 112.029 11.1848 112.029C11.1848 112.029 7.37055 113.897 5.78864 112.526C4.20673 111.155 0.884766 101.548 0.884766 101.548C0.884766 101.548 9.69 104.676 15.1879 111.014C20.6862 117.352 23.6128 126.293 23.6128 126.293Z" fill="#EBEBEB"/>
<path d="M23.154 124.312C18.75 116.057 12.8737 108.589 4.82153 103.66C4.81776 103.658 4.81446 103.664 4.81776 103.666C6.93764 105.015 8.89091 106.57 10.7114 108.271C9.08153 108.226 7.42243 108.486 5.97748 109.269C5.94548 109.286 5.96854 109.33 6.00149 109.318C7.61211 108.774 9.15919 108.417 10.8724 108.496C10.896 108.497 10.911 108.485 10.9275 108.476C11.2132 108.746 11.4951 109.021 11.7742 109.299C10.927 109.335 10.0699 109.455 9.24438 109.634C9.22226 109.638 9.22838 109.673 9.25097 109.669C10.1443 109.496 11.0164 109.436 11.9229 109.449C13.3985 110.929 14.7733 112.513 16.0761 114.158C15.4878 114.072 14.8712 114.122 14.3073 114.286C14.2655 114.298 14.2763 114.358 14.32 114.353C14.9616 114.272 15.5716 114.282 16.2084 114.327C16.4493 114.633 16.6931 114.938 16.9294 115.248C15.1188 115.139 13.3448 115.313 11.5855 115.767C11.5596 115.773 11.5666 115.813 11.5935 115.808C13.4084 115.452 15.2383 115.339 17.0824 115.452C17.3069 115.749 17.5196 116.055 17.7399 116.356C16.6597 116.323 15.612 116.458 14.5587 116.72C14.5187 116.73 14.53 116.793 14.5709 116.784C15.6544 116.537 16.7562 116.475 17.8637 116.527C18.8111 117.831 19.7186 119.163 20.5907 120.512C20.129 120.417 19.6442 120.468 19.1943 120.595C19.1703 120.602 19.1769 120.636 19.2018 120.633C19.72 120.573 20.2039 120.639 20.7126 120.705C21.4968 121.924 22.255 123.155 22.9813 124.394C23.0434 124.499 23.2124 124.421 23.154 124.312Z" fill="white"/>
<path d="M16.3035 117.465C15.4426 117.391 14.5676 117.526 13.7454 117.777C13.7219 117.784 13.7275 117.82 13.7529 117.815C14.5996 117.66 15.4388 117.601 16.2969 117.555C16.3529 117.552 16.3637 117.47 16.3035 117.465Z" fill="white"/>
<path d="M8.62302 107.405C8.23378 107.361 7.8276 107.412 7.44306 107.474C7.39741 107.481 7.41153 107.548 7.45671 107.544C7.84454 107.502 8.22719 107.517 8.61549 107.505C8.67856 107.503 8.68892 107.413 8.62302 107.405Z" fill="white"/>
<path d="M34.9695 153.589H15.0938L17.9276 132.859L18.652 127.543H31.4113L32.1352 132.859L34.9695 153.589Z" fill="#DBDBDB"/>
<path d="M32.1353 132.859H17.9277L18.6521 127.543H31.4114L32.1353 132.859Z" fill="#C7C7C7"/>
<path d="M33.2355 125.699H16.8271V130.201H33.2355V125.699Z" fill="#DBDBDB"/>
<path d="M2.45898 153.589L38.2339 153.475L74.0088 153.433L145.559 153.354L217.108 153.433L252.883 153.474L288.658 153.589L252.883 153.704L217.108 153.746L145.559 153.824L74.0088 153.745L38.2339 153.703L2.45898 153.589Z" fill="#263238"/>
<path d="M146.5 188.621C221.036 188.621 281.46 182.009 281.46 173.853C281.46 165.697 221.036 159.085 146.5 159.085C71.9637 159.085 11.54 165.697 11.54 173.853C11.54 182.009 71.9637 188.621 146.5 188.621Z" fill="#EBEBEB"/>
<path d="M115.085 171.406C113.987 171.776 82.5404 171.887 81.3383 171.134C80.8808 170.851 80.5979 166.279 80.4125 160.744C80.3725 159.549 80.3381 158.315 80.3108 157.061L77.7607 140.311L98.7831 140.177L100.767 156.93L100.687 160.615C100.687 160.615 112.746 165.95 113.975 166.917C115.199 167.883 116.182 171.035 115.085 171.406Z" fill="#EB9481"/>
<path d="M115.084 171.406C113.987 171.776 82.5401 171.887 81.338 171.134C80.7826 170.787 80.4795 164.109 80.3105 157.061L100.767 156.929L100.687 160.614C100.687 160.614 112.746 165.95 113.975 166.917C115.199 167.883 116.182 171.035 115.084 171.406Z" fill="white"/>
<path d="M115.084 171.406C113.987 171.776 82.54 171.887 81.3379 171.134C80.8804 170.851 80.5976 166.279 80.4121 160.744L100.687 160.614C100.687 160.614 112.746 165.95 113.975 166.917C115.199 167.883 116.182 171.035 115.084 171.406Z" fill="#A6A6A6"/>
<path d="M114.629 170.151C109.357 170.04 88.0835 170.09 82.8638 170.381C82.8214 170.383 82.8214 170.412 82.8638 170.414C88.0868 170.638 109.36 170.416 114.63 170.237C114.741 170.234 114.74 170.153 114.629 170.151Z" fill="#263238"/>
<path d="M111.948 165.794C110.698 165.747 109.478 166.345 108.799 167.091C108.147 167.807 107.59 168.814 107.631 169.905C107.632 169.936 107.69 169.937 107.695 169.905C107.988 167.844 109.858 166.028 111.948 165.86C111.991 165.856 111.991 165.796 111.948 165.794Z" fill="#263238"/>
<path d="M102.733 161.131C100.623 161.109 98.1797 161.861 96.8745 163.589C96.8241 163.656 96.9197 163.727 96.9823 163.694C98.8861 162.706 100.697 161.968 102.77 161.39C102.917 161.349 102.884 161.132 102.733 161.131Z" fill="#263238"/>
<path d="M104.365 161.759C102.255 161.737 99.8114 162.49 98.5063 164.217C98.4559 164.285 98.5519 164.355 98.6141 164.323C100.518 163.334 102.329 162.596 104.402 162.019C104.548 161.978 104.516 161.761 104.365 161.759Z" fill="#263238"/>
<path d="M105.996 162.388C103.886 162.366 101.442 163.118 100.137 164.846C100.086 164.913 100.183 164.984 100.245 164.951C102.149 163.963 103.96 163.225 106.033 162.647C106.18 162.606 106.147 162.389 105.996 162.388Z" fill="#263238"/>
<path d="M107.627 163.016C105.517 162.994 103.073 163.746 101.768 165.474C101.717 165.541 101.813 165.612 101.876 165.58C103.78 164.591 105.59 163.853 107.664 163.276C107.81 163.234 107.778 163.018 107.627 163.016Z" fill="#263238"/>
<path d="M84.1889 165.377C81.8219 165.392 81.8412 169.066 84.2125 169.05C86.5794 169.035 86.5601 165.361 84.1889 165.377Z" fill="#263238"/>
<path d="M104.994 155.501C103.923 154.62 102.581 155.489 101.926 156.41C100.864 157.9 100.139 159.988 100.027 161.804C100.025 161.849 100.059 161.867 100.093 161.864C100.139 162.015 100.318 162.141 100.473 162.033C101.972 160.99 103.703 160.061 104.837 158.59C105.498 157.73 106.007 156.333 104.994 155.501ZM102.421 159.988C101.697 160.518 100.95 161.01 100.246 161.568C100.619 160.516 100.945 159.455 101.424 158.442C101.653 157.959 101.896 157.466 102.19 157.018C102.646 156.32 104.711 154.552 104.929 156.843C105.049 158.107 103.285 159.355 102.421 159.988Z" fill="#263238"/>
<path d="M94.7877 162.603C96.6256 162.879 98.5191 162.349 100.323 162.064C100.51 162.034 100.551 161.819 100.479 161.679C100.506 161.657 100.519 161.62 100.486 161.59C99.1442 160.358 97.1721 159.356 95.3722 159.017C94.261 158.807 92.6904 159.11 92.5294 160.486C92.3778 161.788 93.7145 162.443 94.7877 162.603ZM93.5093 161.409C92.0752 159.606 94.791 159.451 95.6038 159.638C96.1262 159.758 96.644 159.944 97.1443 160.134C98.1929 160.532 99.1649 161.072 100.164 161.571C99.2689 161.657 98.3892 161.819 97.4987 161.938C96.4373 162.081 94.3 162.403 93.5093 161.409Z" fill="#263238"/>
<path d="M46.8691 62.8889C46.8691 62.8889 71.2826 104.362 71.9364 107.274C72.9408 111.748 78.2654 155.936 78.2654 155.936L103.668 155.479C103.668 155.479 99.2896 116.52 95.1431 103.684C92.1562 94.439 70.611 63.7768 70.611 63.7768L46.8691 62.8889Z" fill="#37474F"/>
<path d="M101.358 151.59C97.7099 151.563 84.7825 151.418 79.9267 151.87C79.8895 151.874 79.8909 151.935 79.9276 151.94C81.5989 152.18 97.7127 151.807 101.359 151.69C101.428 151.688 101.427 151.59 101.358 151.59Z" fill="#263238"/>
<path d="M51.0366 66.6945C52.6364 69.2001 54.3242 71.6535 55.9597 74.1375C57.5963 76.6224 59.2266 79.1111 60.8359 81.6134C64.0519 86.6147 67.1842 91.6682 70.2591 96.7532C71.7012 99.138 73.0746 101.545 74.0649 104.146C75.0457 106.723 75.7136 109.404 76.2078 112.106C76.7058 114.829 77.0334 117.578 77.3431 120.325C77.6725 123.251 77.9973 126.177 78.3244 129.104C78.9937 135.091 79.663 141.079 80.3323 147.065C80.4142 147.8 80.4947 148.534 80.5686 149.27C80.5794 149.377 80.3864 149.399 80.3728 149.291C79.6253 143.342 79.0045 137.374 78.3254 131.417C77.9874 128.451 77.6495 125.486 77.3115 122.52C76.9971 119.762 76.6983 117.002 76.2699 114.258C75.8487 111.564 75.3023 108.88 74.4809 106.272C73.6229 103.547 72.4077 100.988 70.9688 98.5106C68.0248 93.4406 64.9099 88.4572 61.7937 83.4868C58.6505 78.4738 55.4811 73.4743 52.1939 68.5491C51.7882 67.9409 51.3787 67.3365 50.958 66.7377C50.925 66.6907 51.0055 66.6461 51.0366 66.6945Z" fill="#263238"/>
<path d="M54.872 173.852C53.7137 173.781 23.8099 161.682 22.9763 160.535C22.9485 160.497 22.9321 160.422 22.9307 160.315C22.9363 159.288 25.0072 155.693 26.7379 150.977C26.8461 150.676 27.618 149.276 28.6893 147.389C31.6338 142.205 36.844 133.325 36.844 133.325L56.3904 141.081L47.0344 155.066L45.5782 158.451C45.5782 158.451 54.752 167.918 55.5267 169.272C56.2967 170.627 56.0261 173.917 54.872 173.852Z" fill="#EB9481"/>
<path d="M54.872 173.852C53.7137 173.781 23.8099 161.682 22.9763 160.535C22.9485 160.497 22.9321 160.422 22.9307 160.315C22.9363 159.288 25.0072 155.693 26.7379 150.977C26.8461 150.676 27.618 149.276 28.6893 147.389L47.0349 155.066L45.5787 158.451C45.5787 158.451 54.7524 167.918 55.5272 169.272C56.2967 170.627 56.0261 173.917 54.872 173.852Z" fill="white"/>
<path d="M54.8704 173.85C53.714 173.782 23.8093 161.682 22.9776 160.534C22.6599 160.1 23.9971 156.022 26.7364 150.978L45.579 158.453C45.579 158.453 54.7528 167.916 55.5294 169.273C56.2994 170.627 56.0269 173.917 54.8704 173.85Z" fill="#A6A6A6"/>
<path d="M54.9198 172.516C50.0747 170.439 30.3354 162.516 25.3878 160.83C25.3478 160.816 25.337 160.843 25.3755 160.86C30.133 163.024 49.9359 170.787 54.8878 172.596C54.9922 172.635 55.0219 172.56 54.9198 172.516Z" fill="#263238"/>
<path d="M54.0722 167.473C52.9308 166.962 51.5758 167.058 50.666 167.495C49.7919 167.915 48.8977 168.64 48.5258 169.667C48.515 169.696 48.5687 169.718 48.5851 169.69C49.6319 167.89 52.0474 166.907 54.0482 167.534C54.0882 167.547 54.1117 167.491 54.0722 167.473Z" fill="#263238"/>
<path d="M47.2819 159.698C45.3343 158.888 42.7866 158.669 40.9275 159.782C40.8554 159.825 40.9181 159.927 40.9882 159.92C43.1245 159.717 45.0797 159.711 47.2189 159.953C47.3699 159.97 47.4213 159.757 47.2819 159.698Z" fill="#263238"/>
<path d="M48.5573 160.892C46.6097 160.081 44.062 159.863 42.2029 160.975C42.1308 161.019 42.1934 161.12 42.2636 161.113C44.3995 160.91 46.3551 160.904 48.4942 161.145C48.6453 161.163 48.6966 160.95 48.5573 160.892Z" fill="#263238"/>
<path d="M49.8337 162.086C47.8861 161.275 45.3384 161.057 43.4792 162.169C43.4072 162.212 43.4698 162.314 43.5399 162.307C45.6758 162.104 47.6314 162.098 49.7706 162.34C49.9212 162.357 49.973 162.143 49.8337 162.086Z" fill="#263238"/>
<path d="M51.1097 163.279C49.1621 162.468 46.6143 162.25 44.7557 163.363C44.6837 163.406 44.7458 163.507 44.8164 163.501C46.9528 163.298 48.9079 163.292 51.0471 163.533C51.1977 163.55 51.2495 163.337 51.1097 163.279Z" fill="#263238"/>
<path d="M28.4958 156.687C26.2959 155.814 24.9338 159.227 27.1375 160.101C29.3379 160.974 30.7 157.561 28.4958 156.687Z" fill="#263238"/>
<path d="M51.4924 155.326C50.8302 154.109 49.2596 154.411 48.3065 155.019C46.7627 156.003 45.306 157.666 44.5204 159.308C44.5011 159.349 44.5261 159.378 44.559 159.389C44.5444 159.546 44.663 159.729 44.848 159.687C46.629 159.282 48.5832 159.069 50.1863 158.13C51.122 157.582 52.1184 156.478 51.4924 155.326ZM47.4216 158.522C46.5504 158.742 45.674 158.919 44.8113 159.172C45.5521 158.337 46.2529 157.475 47.0776 156.715C47.471 156.353 47.8824 155.988 48.3225 155.682C49.0073 155.206 51.5856 154.341 50.9267 156.546C50.5633 157.763 48.4599 158.259 47.4216 158.522Z" fill="#263238"/>
<path d="M39.3625 158.087C40.9628 159.03 42.9165 159.249 44.6961 159.66C44.8806 159.703 44.9997 159.52 44.986 159.362C45.019 159.352 45.0444 159.322 45.0251 159.282C44.2442 157.637 42.7927 155.97 41.2522 154.981C40.3005 154.37 38.7309 154.063 38.0653 155.278C37.4351 156.428 38.4282 157.536 39.3625 158.087ZM38.6268 156.5C37.975 154.292 40.5505 155.166 41.2334 155.644C41.6725 155.951 42.0825 156.317 42.475 156.681C43.2973 157.443 43.9957 158.308 44.7342 159.144C43.8724 158.889 42.9965 158.709 42.1258 158.486C41.0884 158.22 38.986 157.718 38.6268 156.5Z" fill="#263238"/>
<path d="M48.543 154.283L26.6641 145.461C26.6641 145.461 53.7914 105.63 53.9924 102.666C54.1698 100.04 42.2549 77.1874 41.7852 70.5275C41.2783 63.3401 44.7443 57.7771 48.5524 54.325L71.1232 63.906C71.1232 63.906 68.7412 67.7117 64.9886 69.83C64.9886 69.83 76.5632 96.2448 75.9066 104.366C75.2467 112.532 48.543 154.283 48.543 154.283Z" fill="#37474F"/>
<path d="M49.5149 150.128C46.3511 148.77 47.2783 149.115 44.0989 147.792C42.5434 147.144 32.3163 142.899 30.7593 142.55C30.7249 142.542 30.7028 142.596 30.7329 142.614C32.0941 143.447 42.3932 147.513 43.961 148.131C47.1649 149.393 46.2588 148.996 49.4768 150.221C49.5375 150.244 49.5742 150.154 49.5149 150.128Z" fill="#263238"/>
<path d="M68.7043 69.3467C66.3528 69.8515 64.0461 70.6811 61.8302 71.5727C61.7431 71.6079 61.7841 71.7367 61.8773 71.7095C64.1845 71.0369 66.5312 70.4085 68.7961 69.6137C68.974 69.5512 68.8845 69.3077 68.7043 69.3467Z" fill="#263238"/>
<path d="M66.0263 68.419C65.8037 68.8063 65.615 69.2142 65.4465 69.6264C65.3161 69.9465 65.1485 70.2896 65.1504 70.6388C65.1509 70.7065 65.2422 70.7229 65.2841 70.6816C65.5462 70.424 65.6856 70.048 65.8512 69.727C66.0433 69.3552 66.2438 68.9867 66.425 68.6093C66.545 68.3593 66.1633 68.1802 66.0263 68.419Z" fill="#263238"/>
<path d="M66.301 66.3002C66.4393 65.9533 66.5786 65.6069 66.7246 65.2634C66.8756 64.9076 67.0512 64.5569 67.1745 64.1908C67.1938 64.133 67.2856 64.172 67.2625 64.2303C67.1246 64.5776 67.0347 64.948 66.9241 65.3052C66.813 65.6638 66.6958 66.0201 66.5772 66.3763C66.356 67.0395 66.0854 67.6975 65.8002 68.3377C66.1692 68.333 66.549 68.3165 66.8846 68.1497C67.2489 67.9682 67.4696 67.5819 67.6489 67.2327C67.848 66.8449 68.0311 66.4482 68.2359 66.0633C68.4623 65.6375 68.7127 65.2163 68.8619 64.7553C68.8807 64.697 68.9706 64.736 68.9499 64.7943C68.61 65.746 68.2759 66.6964 67.7473 67.5734C67.5398 67.9179 67.3713 68.2766 66.9886 68.4114C66.5777 68.5562 66.1282 68.528 65.7004 68.497C65.6477 68.5116 65.5794 68.4777 65.5978 68.4138C65.7997 67.7046 66.027 66.9855 66.301 66.3002Z" fill="#263238"/>
<path d="M65.3411 70.6899C66.1431 72.3881 66.8486 74.0801 67.5984 75.7721C68.3312 77.4256 69.0175 79.0983 69.6835 80.7791C71.0296 84.1758 72.2354 87.6341 73.293 91.1314C73.8164 92.862 74.2984 94.6048 74.7342 96.3593C75.171 98.1185 75.5979 99.8956 75.7791 101.702C75.9607 103.515 75.8313 105.307 75.3258 107.059C74.8128 108.837 74.1369 110.39 73.334 112.054C72.8435 113.07 72.6745 112.933 72.9122 112.42C73.5858 110.964 75.3498 106.552 75.2218 102.842C75.1601 101.052 74.7921 99.2898 74.3873 97.5508C73.9741 95.7755 73.5076 94.013 72.9988 92.2627C71.9963 88.8143 70.8055 85.434 69.5804 82.0594C68.8942 80.1685 68.1576 78.297 67.461 76.4104C66.7592 74.5097 66.0358 72.7993 65.2573 70.7238C65.2366 70.6693 65.3161 70.6373 65.3411 70.6899Z" fill="#263238"/>
<path d="M48.7291 65.081C49.1212 64.9363 49.6648 65.176 50.0644 65.2427C50.577 65.3287 51.0952 65.3809 51.6148 65.3987C52.1269 65.4161 52.6432 65.3955 53.1529 65.3456C53.6627 65.2963 54.1828 65.2333 54.6256 64.9569C55.3721 64.4916 55.9972 63.6719 56.5031 62.966C57.059 62.19 57.636 61.2979 57.9674 60.3993C57.9876 60.3443 58.0672 60.3819 58.0497 60.436C57.885 60.96 57.7626 61.4883 57.5532 62.0001C57.356 62.4819 57.1014 62.9425 56.8312 63.3862C56.3266 64.2153 55.7477 65.1003 54.8826 65.5933C53.9747 66.1108 52.8051 66.0798 51.7927 66.0215C51.2072 65.9877 50.624 65.9106 50.0498 65.7898C49.6356 65.7024 48.9386 65.6361 48.6745 65.2728C48.627 65.2089 48.6519 65.1097 48.7291 65.081Z" fill="#263238"/>
<path d="M32.9096 141.297C36.506 135.862 40.0355 130.383 43.5015 124.864C46.9764 119.331 50.3874 113.757 53.7508 108.156C54.5551 106.816 55.4847 105.477 56.0029 103.993C56.5663 102.38 56.2462 100.817 55.736 99.2391C54.8003 96.3443 53.635 93.5275 52.3769 90.7587C51.115 87.982 49.7567 85.2508 48.42 82.5097C47.0946 79.7907 45.684 77.0628 44.6786 74.2056C43.7185 71.4763 43.3528 68.6459 44.0898 65.8151C44.8213 63.0063 46.4032 60.4843 48.0552 58.1305C48.4911 57.5096 48.9349 56.8944 49.3721 56.2744C49.4056 56.2274 49.4771 56.2843 49.4423 56.3313C47.6217 58.7852 45.8464 61.3825 44.7789 64.2636C44.2513 65.6872 43.9096 67.1861 43.8762 68.707C43.8418 70.25 44.1322 71.7809 44.5873 73.2506C45.4727 76.1082 46.8701 78.814 48.1719 81.4987C49.503 84.2431 50.8698 86.971 52.1533 89.7384C53.4448 92.5227 54.6525 95.3493 55.6452 98.2549C56.0871 99.5483 56.5799 100.902 56.5508 102.288C56.5187 103.806 55.793 105.173 55.0418 106.453C51.7697 112.025 48.3729 117.527 44.9342 122.998C41.4824 128.49 37.9622 133.939 34.3875 139.352C33.9366 140.034 33.4848 140.716 33.0325 141.398C32.9765 141.481 32.8541 141.381 32.9096 141.297Z" fill="#263238"/>
<path d="M72.3767 38.5738C74.4137 43.0393 84.7048 49.1926 89.5249 49.8539C92.9928 50.3296 103.522 50.4932 107.133 49.9428C111.362 49.2979 108.131 37.8965 105.631 38.1884C98.7594 38.9907 92.9246 39.8837 91.0904 39.8837C88.8509 39.8837 76.7294 35.9986 75.2689 35.452C71.6942 34.1139 71.2212 36.0409 72.3767 38.5738Z" fill="#EB9481"/>
<path d="M72.4406 39.7559C75.0194 43.5671 83.5935 49.7975 83.5935 49.7975L84.7833 47.165L88.7209 38.4629C88.7209 38.4629 80.8472 35.9817 75.6656 34.8763C74.9657 34.7263 74.3487 34.6366 73.8116 34.6126C70.5038 34.4345 70.2167 36.4771 72.4406 39.7559Z" fill="#D2D2D2"/>
<path d="M72.4406 39.7559C75.0194 43.5671 83.5935 49.7975 83.5935 49.7975L84.7833 47.165C81.5861 43.459 76.6507 37.842 73.8116 34.6126C70.5038 34.4345 70.2167 36.4771 72.4406 39.7559Z" fill="#263238"/>
<path d="M82.0477 48.0384C82.701 46.439 85.612 39.9858 86.3345 38.6317C86.3849 38.5377 86.4559 38.5452 86.4159 38.6491C84.5733 43.4859 82.8318 46.5226 82.1112 48.06C82.0933 48.0986 82.0312 48.0788 82.0477 48.0384Z" fill="#263238"/>
<path d="M104.37 38.3131C108.552 37.765 113.726 36.8283 118.106 38.6853C118.965 39.0495 119.277 39.6892 119.277 39.6892C121.255 40.4868 121.472 41.659 121.472 41.659C123.087 42.9652 123.144 44.1947 123.144 44.1947C123.144 44.1947 125.456 45.1563 125.106 46.6486C124.718 48.3232 121.547 46.6448 119.238 46.7873C113.946 47.113 106.517 49.0541 105 49.2994L104.37 38.3131Z" fill="#EB9481"/>
<path d="M113.453 43.2374C115.012 43.1725 116.542 43.0682 118.101 43.2144C119.813 43.3746 121.432 43.816 123.093 44.2239C123.144 44.2366 123.168 44.1661 123.119 44.1454C120.23 42.9319 116.527 42.6132 113.449 43.1669C113.374 43.1801 113.374 43.2407 113.453 43.2374Z" fill="#263238"/>
<path d="M112.792 40.077C114.312 40.0976 116.984 40.1517 121.456 41.7074C121.471 41.7126 121.484 41.6895 121.469 41.6815C118.7 40.2861 115.861 39.7898 112.793 40.0046C112.698 40.0112 112.691 40.0755 112.792 40.077Z" fill="#263238"/>
<path d="M112.468 38.3719C115.052 38.5058 116.665 38.9166 119.264 39.6968C119.278 39.7011 119.29 39.6771 119.274 39.6705C116.414 38.4743 115.24 38.3639 112.46 38.2831C112.365 38.2798 112.367 38.3667 112.468 38.3719Z" fill="#263238"/>
<path d="M112.886 47.583C112.214 47.8979 112.375 48.2523 113.661 48.5498C114.962 48.8534 120.29 48.9347 120.102 50.7931C119.916 52.6586 112.378 52.4198 110.275 51.7609C108.169 51.1066 105 49.2999 105 49.2999C106.476 49.0508 109.998 48.1075 112.886 47.583Z" fill="#EB9481"/>
<path d="M77.9725 45.6924C77.9401 46.4951 77.861 47.3125 77.748 48.1228C77.7588 48.0936 77.7716 48.065 77.7824 48.0358C77.9391 47.6128 78.0916 47.179 78.2818 46.7701C78.2916 46.7485 78.3298 46.7546 78.3251 46.7809C78.2422 47.2246 78.0864 47.6702 77.917 48.0889C77.836 48.2887 77.7537 48.4884 77.6671 48.6863C77.6087 49.0473 77.5438 49.4059 77.4708 49.7589C77.332 50.431 76.6961 53.29 76.5516 53.7732C76.521 53.8747 76.4 53.8517 76.4076 53.7379C76.4424 53.2115 76.9757 50.234 77.0834 49.56C77.2905 48.2656 77.5753 46.9449 77.9222 45.6801C77.9302 45.6501 77.9735 45.6642 77.9725 45.6924Z" fill="#263238"/>
<path d="M73.0662 67.0588C71.8109 67.7051 70.1918 68.7062 62.897 67.2722C62.4409 67.1796 61.9825 67.0677 61.5231 66.9314C54.682 64.8794 46.4773 56.8461 46.0146 56.2797C46.0146 56.2797 56.879 38.6869 70.7788 33.1568C72.4967 32.4735 75.3409 33.7913 76.9153 35.4317C77.4778 36.0178 78.6977 40.3343 78.2294 43.8326C77.7564 47.3256 74.3304 66.4187 73.0662 67.0588Z" fill="#D2D2D2"/>
<path d="M72.095 43.6721C72.1349 44.05 72.1048 44.418 72.0589 44.7837C72.0039 45.1484 71.9321 45.5108 71.7904 45.8633C71.75 45.4854 71.7801 45.1174 71.8265 44.7517C71.8819 44.387 71.9537 44.0246 72.095 43.6721Z" fill="white"/>
<path d="M67.3567 55.6526C67.3966 56.0305 67.3666 56.3985 67.3206 56.7646C67.2657 57.1293 67.1938 57.4917 67.0521 57.8442C67.0117 57.4663 67.0418 57.0983 67.0882 56.7322C67.1441 56.3675 67.2154 56.0051 67.3567 55.6526Z" fill="white"/>
<path d="M59.302 46.5984C59.3419 46.9763 59.3119 47.3443 59.2659 47.71C59.211 48.0747 59.1392 48.4371 58.9974 48.7896C58.9571 48.4117 58.9871 48.0437 59.0336 47.6775C59.0894 47.3133 59.1612 46.9509 59.302 46.5984Z" fill="white"/>
<path d="M75.1985 55.0449C75.2384 55.4228 75.2084 55.7908 75.1624 56.1565C75.1075 56.5212 75.0356 56.8836 74.8939 57.2361C74.8535 56.8582 74.8836 56.4902 74.93 56.1241C74.9854 55.7598 75.0572 55.3974 75.1985 55.0449Z" fill="white"/>
<path d="M64.8574 45.044C65.2358 45.0041 65.6044 45.0341 65.971 45.0802C66.3363 45.1352 66.6991 45.2071 67.0521 45.349C66.6737 45.3895 66.3052 45.3594 65.9385 45.3129C65.5733 45.2574 65.2109 45.1855 64.8574 45.044Z" fill="white"/>
<path d="M55.7168 53.7003C56.0952 53.6603 56.4637 53.6904 56.8299 53.7364C57.1952 53.7914 57.558 53.8634 57.911 54.0053C57.5326 54.0457 57.1641 54.0156 56.7979 53.9691C56.4322 53.9136 56.0698 53.8417 55.7168 53.7003Z" fill="white"/>
<path d="M66.4697 63.0679C66.8481 63.028 67.2167 63.0581 67.5829 63.1041C67.9481 63.1591 68.311 63.231 68.664 63.373C68.2856 63.4134 67.917 63.3833 67.5508 63.3368C67.1856 63.2813 66.8227 63.2094 66.4697 63.0679Z" fill="white"/>
<path d="M52.8984 59.6651C53.2769 59.6251 53.6454 59.6552 54.012 59.7013C54.3773 59.7563 54.7402 59.8282 55.0932 59.9701C54.7147 60.0106 54.3462 59.9805 53.9796 59.9339C53.6143 59.878 53.2514 59.8061 52.8984 59.6651Z" fill="white"/>
<path d="M72.0264 35.252C72.4048 35.2121 72.7733 35.2421 73.14 35.2882C73.5052 35.3432 73.8676 35.4151 74.2206 35.557C73.8422 35.5975 73.4737 35.5674 73.1075 35.5209C72.7422 35.4649 72.3794 35.393 72.0264 35.252Z" fill="white"/>
<path d="M69.3699 38.2502C69.1303 38.5454 68.8489 38.7846 68.5571 39.0107C68.2601 39.2297 67.9527 39.4351 67.6025 39.5836C67.8416 39.288 68.1236 39.0488 68.4154 38.8232C68.7124 38.6046 69.0202 38.3992 69.3699 38.2502Z" fill="white"/>
<path d="M54.8757 46.7695C54.6362 47.0647 54.3547 47.3039 54.0629 47.53C53.7659 47.749 53.4586 47.9544 53.1084 48.1034C53.3475 47.8078 53.6294 47.5685 53.9212 47.3429C54.2187 47.1239 54.526 46.919 54.8757 46.7695Z" fill="white"/>
<path d="M72.9705 50.6174C72.7309 50.9126 72.4495 51.1518 72.1576 51.3779C71.8606 51.5969 71.5533 51.8023 71.2031 51.9508C71.4422 51.6552 71.7241 51.416 72.016 51.1904C72.3134 50.9723 72.6208 50.7669 72.9705 50.6174Z" fill="white"/>
<path d="M61.2527 57.9861C61.0131 58.2812 60.7317 58.5205 60.4399 58.7466C60.1429 58.9656 59.8355 59.171 59.4854 59.3195C59.7245 59.0239 60.0064 58.7846 60.2982 58.559C60.5952 58.3409 60.9025 58.1355 61.2527 57.9861Z" fill="white"/>
<path d="M77.4612 40.5476C77.2216 40.8428 76.9402 41.082 76.6483 41.3081C76.3514 41.5271 76.044 41.7325 75.6934 41.881C75.9325 41.5854 76.2144 41.3461 76.5062 41.1205C76.8041 40.902 77.1115 40.6966 77.4612 40.5476Z" fill="white"/>
<path d="M77.2161 49.0891C76.9206 48.8499 76.681 48.5688 76.4546 48.2774C76.2353 47.9808 76.0296 47.6739 75.8809 47.3242C76.1769 47.563 76.4165 47.8445 76.6424 48.1359C76.8608 48.433 77.0665 48.7399 77.2161 49.0891Z" fill="white"/>
<path d="M51.097 54.9712C50.8014 54.7319 50.5618 54.4509 50.3355 54.1595C50.1161 53.8629 49.9104 53.556 49.7617 53.2063C50.0578 53.4451 50.2973 53.7266 50.5233 54.018C50.7421 54.3146 50.9478 54.6215 51.097 54.9712Z" fill="white"/>
<path d="M74.0418 61.9734C73.7462 61.7341 73.5067 61.4531 73.2803 61.1617C73.0609 60.8651 72.8553 60.5582 72.7061 60.2085C73.0021 60.4473 73.2417 60.7288 73.4676 61.0202C73.6869 61.3168 73.8921 61.6242 74.0418 61.9734Z" fill="white"/>
<path d="M62.5423 42.0205C62.2467 41.7812 62.0072 41.5002 61.7808 41.2088C61.5614 40.9122 61.3558 40.6053 61.207 40.2556C61.5031 40.4944 61.7426 40.7759 61.9686 41.0673C62.1874 41.3639 62.3931 41.6708 62.5423 42.0205Z" fill="white"/>
<path d="M62.7464 65.9575C62.4508 65.7183 62.2113 65.4372 61.9849 65.1458C61.7655 64.8492 61.5599 64.5423 61.4111 64.1926C61.7072 64.4314 61.9467 64.7129 62.1727 65.0043C62.3911 65.3009 62.5967 65.6078 62.7464 65.9575Z" fill="white"/>
<path d="M64.7005 51.8371C64.4049 51.5979 64.1654 51.3168 63.939 51.0254C63.7196 50.7289 63.514 50.4219 63.3652 50.0723C63.6613 50.311 63.9009 50.5926 64.1268 50.884C64.3456 51.1805 64.5513 51.4874 64.7005 51.8371Z" fill="white"/>
<path d="M74.3596 40.1148C72.5885 39.7858 70.9191 36.125 70.7091 33.6621C70.6955 33.4934 71.5385 32.1525 72.485 30.4746C73.0554 29.4542 73.6668 28.3045 74.1488 27.2155C74.2467 26.9913 74.827 27.7387 74.827 27.7387L76.0879 28.7017L80.2557 31.893C80.2557 31.893 78.5731 33.8798 77.7447 35.7837C77.6774 35.9435 77.6275 36.0982 77.5941 36.2514C77.5875 36.273 77.5823 36.3003 77.5715 36.3299C77.3338 37.2403 76.0715 40.4316 74.3596 40.1148Z" fill="#EB9481"/>
<path d="M77.5938 36.252C77.5872 36.2736 77.582 36.3008 77.5712 36.3305C77.3434 36.2665 77.1048 36.1758 76.8515 36.0574C72.2903 33.9226 74.3024 27.8201 74.3024 27.8201L76.0881 28.7023L80.2559 31.8936C80.2559 31.8936 78.5732 33.8803 77.7449 35.7843C77.6771 35.9441 77.6277 36.0988 77.5938 36.252Z" fill="#263238"/>
<path d="M85.04 18.886C85.04 18.886 87.1237 20.2076 87.1373 22.5567C87.151 24.9063 86.2139 27.2046 85.9964 27.2869C85.779 27.3691 85.04 18.886 85.04 18.886Z" fill="#263238"/>
<path d="M74.6968 20.1054C73.4439 22.5752 73.507 30.352 75.072 32.3561C77.3401 35.2612 81.7098 36.2623 84.3469 33.3901C86.9036 30.6058 86.6414 20.4724 84.8326 18.584C82.1687 15.8025 76.548 16.4572 74.6968 20.1054Z" fill="#EB9481"/>
<path d="M81.3425 26.3363C81.3377 26.3161 81.3015 26.3622 81.3029 26.3842C81.3321 26.9139 81.2761 27.5254 80.7998 27.7125C80.7852 27.7181 80.7871 27.7449 80.805 27.7421C81.3886 27.6457 81.4549 26.8331 81.3425 26.3363Z" fill="#263238"/>
<path d="M80.8549 25.7934C79.9997 25.7482 79.9729 27.4595 80.765 27.5014C81.5449 27.5422 81.5717 25.831 80.8549 25.7934Z" fill="#263238"/>
<path d="M84.2458 26.3163C84.25 26.2961 84.2868 26.3421 84.2858 26.3638C84.2604 26.8935 84.3211 27.5045 84.7984 27.6882C84.8134 27.6939 84.8111 27.7207 84.7937 27.7178C84.2091 27.6257 84.1366 26.814 84.2458 26.3163Z" fill="#263238"/>
<path d="M84.7288 25.7702C85.5836 25.7189 85.6231 27.4298 84.8314 27.4772C84.052 27.5242 84.012 25.8129 84.7288 25.7702Z" fill="#263238"/>
<path d="M80.3183 24.4909C80.5526 24.4359 80.7597 24.3462 80.9857 24.2682C81.2408 24.1798 81.453 24.1356 81.6229 23.9114C81.7138 23.7911 81.6804 23.5721 81.5716 23.4724C81.318 23.2412 80.9791 23.2717 80.6675 23.3657C80.3296 23.4677 80.0952 23.6322 79.898 23.9236C79.7059 24.2061 80.009 24.5633 80.3183 24.4909Z" fill="#263238"/>
<path d="M85.3226 25.2496C85.0859 25.2073 84.8741 25.1288 84.6444 25.0625C84.385 24.9878 84.1704 24.9549 83.9892 24.7396C83.8918 24.624 83.9139 24.4036 84.017 24.2988C84.2575 24.0544 84.5983 24.0671 84.9141 24.1441C85.2572 24.2278 85.5001 24.3801 85.7123 24.6607C85.9185 24.9323 85.6351 25.3055 85.3226 25.2496Z" fill="#263238"/>
<path d="M80.1333 31.3581C80.2585 31.484 80.3827 31.657 80.5748 31.6763C80.7593 31.6946 80.9772 31.6147 81.1476 31.5517C81.1645 31.5456 81.181 31.5635 81.1702 31.5794C81.029 31.7806 80.7371 31.9033 80.4919 31.8567C80.2524 31.8112 80.137 31.602 80.082 31.3816C80.0744 31.3505 80.1149 31.3397 80.1333 31.3581Z" fill="#263238"/>
<path d="M83.2158 29.0923C83.2158 29.0923 83.2384 29.8856 83.1984 30.2541C83.1946 30.2884 82.1535 30.0849 81.0315 30.3317C80.8634 30.3688 80.8799 30.232 81.0738 30.1427C81.4621 29.9637 81.9554 29.7959 82.9155 29.8988C82.9527 29.7996 82.8581 28.6782 82.917 28.6801C83.1208 28.6848 83.5034 28.8653 83.7345 28.9611C83.7354 27.3072 83.4709 25.6669 83.4968 24.02C83.4987 23.9612 83.5844 23.9528 83.5957 24.0068C83.9948 25.7068 84.0353 27.6099 84.0786 29.3179C84.0866 29.5308 83.357 29.1712 83.2158 29.0923Z" fill="#263238"/>
<path d="M82.1565 29.9721C82.1565 29.9721 81.7866 30.9018 81.1681 31.1513C80.4565 31.439 80.2127 30.7955 80.9389 30.2273C81.3197 29.9293 82.1565 29.9721 82.1565 29.9721Z" fill="#263238"/>
<path d="M81.4155 31.0066C81.3355 31.0677 81.2555 31.1194 81.1661 31.1523C80.5119 31.4155 80.253 30.8938 80.7802 30.3674C81.1383 30.3956 81.5285 30.5272 81.4155 31.0066Z" fill="#FF99BA"/>
<path d="M74.3372 26.7587C75.1975 27.0224 76.1878 24.4378 76.4679 23.4442C76.7145 22.5686 76.9993 19.7904 77.0411 19.601C77.083 19.4116 80.7933 22.0591 82.9626 21.426C85.1319 20.7929 86.5816 18.849 86.6117 17.9414C86.6413 17.0343 83.9482 14.7308 81.6174 14.6128C79.2867 14.4948 76.1318 17.4531 76.1318 17.4531C76.1318 17.4531 77.2035 16.1751 77.1673 16.0703C77.131 15.9655 75.6249 16.5662 75.3482 17.6373C75.3482 17.6373 75.6461 16.2926 75.5322 16.2677C75.4183 16.2428 74.2482 17.3943 74.5122 18.2671C74.5122 18.2671 73.1586 19.4379 73.0334 20.7215C72.9077 22.0055 73.3262 26.449 74.3372 26.7587Z" fill="#263238"/>
<path d="M84.5038 20.9739C83.8444 21.277 83.1835 21.6103 82.4545 21.7062C81.6666 21.81 80.849 21.6126 80.1157 21.3316C79.3655 21.0449 78.684 20.6284 78.0646 20.1194C77.5219 19.6734 77.0409 19.1352 76.4615 18.7381C76.3165 18.6389 76.1485 18.8471 76.2379 18.9806C77.1176 20.2985 78.6741 21.3988 80.1741 21.8739C81.7522 22.3736 83.2358 22.022 84.5122 20.9913C84.5198 20.9847 84.5146 20.9687 84.5038 20.9739Z" fill="#263238"/>
<path d="M75.2372 26.5285C75.2372 26.5285 73.9014 23.8203 72.6965 24.2593C71.4916 24.6983 72.2334 28.4405 73.4628 29.1258C74.6926 29.811 75.3497 28.6868 75.3497 28.6868L75.2372 26.5285Z" fill="#EB9481"/>
<path d="M72.9363 25.3273C72.9156 25.3221 72.9071 25.3508 72.9241 25.3611C73.7816 25.8715 74.1328 26.7923 74.3347 27.7224C74.1149 27.3427 73.7727 27.1006 73.2695 27.3544C73.2432 27.3676 73.2601 27.4085 73.287 27.4071C73.6739 27.3845 73.9341 27.4907 74.1412 27.8291C74.2876 28.0688 74.369 28.356 74.4594 28.6206C74.4895 28.709 74.6439 28.6878 74.6274 28.5891C74.626 28.5816 74.6246 28.5741 74.6232 28.5666C74.8256 27.4052 74.1704 25.6365 72.9363 25.3273Z" fill="#263238"/>
<path d="M66.4117 38.6156C65.4915 43.9398 71.2482 61.8808 74.9547 65.232C80.4667 70.2154 90.658 73.4923 94.3509 74.5583C95.9601 75.0231 100.413 63.7134 98.785 62.9684C95.2974 61.3732 84.4627 57.9986 83.4427 57.1319C82.4228 56.2652 76.1968 47.3201 73.4288 42.1613C69.7157 35.2395 66.8771 35.9224 66.4117 38.6156Z" fill="#EB9481"/>
<path d="M96.0426 61.9734C96.0426 61.9734 100.849 63.1963 103.954 64.1439C105.686 64.6722 108.575 65.8429 109.67 66.8126C111.307 68.263 117.229 75.3728 115.533 76.8439C113.999 78.1754 109.688 71.4219 109.688 71.4219C109.688 71.4219 114.641 77.8525 112.498 79.1164C110.355 80.3802 106.501 72.103 106.501 72.103C106.501 72.103 111.441 78.824 109.025 79.7786C107.199 80.4996 103.285 73.1995 103.285 73.1995C103.285 73.1995 107.492 79.0059 105.646 79.8284C103.606 80.7374 99.5698 74.225 99.5698 74.225C94.5252 75.5265 91.5901 74.0859 89.6241 72.8127C89.1483 72.5034 96.0426 61.9734 96.0426 61.9734Z" fill="#EB9481"/>
<path d="M108.118 69.0878C108.727 69.822 109.349 70.5613 109.89 71.3471C110.432 72.133 110.947 72.9386 111.413 73.7714C112.556 75.8141 112.952 77.2715 112.918 77.1841C112.107 75.118 110.211 72.2744 109.67 71.4881C109.129 70.7037 108.628 69.8925 108.088 69.1071C108.074 69.0873 108.103 69.0704 108.118 69.0878Z" fill="#263238"/>
<path d="M105.24 70.9893C106.284 71.8156 108.474 74.8927 109.319 76.9542C109.354 77.0407 109.308 77.0336 109.257 76.9551C108.595 75.9366 105.923 71.9872 105.216 71.0053C105.205 70.9898 105.226 70.9781 105.24 70.9893Z" fill="#263238"/>
<path d="M102.477 72.1787C103.686 73.3734 104.7 75.0043 105.499 76.8895C105.535 76.9746 105.467 76.9614 105.417 76.8811C104.442 75.2962 103.688 74.046 102.427 72.2205C102.407 72.1918 102.449 72.1509 102.477 72.1787Z" fill="#263238"/>
<path d="M71.6502 39.007C67.3526 32.9373 64.7846 35.1872 65.6464 41.7753C66.4522 47.9366 68.6149 55.2767 68.6149 55.2767L79.4595 50.0314C79.4595 50.0314 74.4003 42.8916 71.6502 39.007Z" fill="#D2D2D2"/>
<path d="M74.2759 41.3936C74.4293 41.7414 74.5136 42.1009 74.5809 42.4633C74.6397 42.8275 74.6821 43.1941 74.6543 43.5734C74.5004 43.2256 74.4161 42.8661 74.3493 42.5037C74.2909 42.139 74.249 41.7724 74.2759 41.3936Z" fill="white"/>
<path d="M67.8594 45.0836C68.2077 44.9304 68.5677 44.8467 68.9306 44.779C69.2954 44.7203 69.6625 44.678 70.0423 44.7057C69.694 44.8594 69.334 44.9435 68.9711 45.0103C68.6063 45.0686 68.2387 45.1104 67.8594 45.0836Z" fill="white"/>
<path d="M68.1393 35.6455C68.0014 35.9999 67.8065 36.3134 67.5975 36.6175C67.3815 36.9164 67.1513 37.2059 66.8633 37.4541C67.0007 37.0997 67.196 36.7857 67.405 36.4821C67.6215 36.1832 67.8517 35.8941 68.1393 35.6455Z" fill="white"/>
<path d="M77.2892 47.9182C77.1513 48.2721 76.9564 48.5861 76.7474 48.8902C76.5314 49.1891 76.3017 49.4786 76.0137 49.7268C76.1511 49.3724 76.346 49.0584 76.5554 48.7548C76.7719 48.4564 77.0021 48.1668 77.2892 47.9182Z" fill="white"/>
<path d="M69.7867 51.5999C69.4318 51.4622 69.1179 51.2676 68.8134 51.0589C68.514 50.8432 68.2241 50.6133 67.9756 50.3262C68.3305 50.4634 68.6444 50.658 68.9489 50.8671C69.2483 51.0829 69.5377 51.3127 69.7867 51.5999Z" fill="white"/>
<path d="M73.0916 40.8338C73.6686 41.6267 74.2668 42.4041 74.8627 43.1829C74.7116 42.789 74.5808 42.3909 74.464 41.9844C74.4589 41.9656 74.4857 41.9576 74.4927 41.9755C74.6132 42.2871 74.7469 42.5945 74.8622 42.9079C74.9178 43.0588 74.9742 43.2087 75.0321 43.3587C75.0448 43.3911 75.0575 43.4231 75.0702 43.455C75.5339 44.0627 75.9956 44.6719 76.4418 45.2918C76.9741 46.0321 77.4881 46.785 78.0044 47.5366C78.5376 48.313 79.0436 49.2234 79.607 49.9782C79.656 50.0436 78.6473 50.4506 78.5532 50.5028C78.4567 50.5564 78.3913 50.4628 78.4939 50.4318C78.5885 50.4031 79.3872 49.9129 79.3971 49.903C78.8812 49.1454 78.2816 48.4446 77.7413 47.7039C77.2038 46.9664 76.6639 46.2309 76.1424 45.4822C75.0834 43.9612 74.111 42.3811 73.06 40.8536C73.0464 40.8343 73.0774 40.8145 73.0916 40.8338Z" fill="#263238"/>
<path d="M65.913 46.1342C66.0777 46.4548 66.2552 46.772 66.4011 47.1015C66.4613 47.2378 66.5206 47.3741 66.5809 47.5104C66.3338 46.3373 66.0914 45.1632 65.8508 43.9882C65.848 43.9745 65.8687 43.9675 65.8725 43.9816C66.3695 45.8837 66.8717 47.7839 67.333 49.695C67.7731 51.5167 68.3044 53.361 68.5562 55.2199C68.7064 55.1705 69.5503 54.8218 69.5748 54.8763C69.5992 54.9313 68.4715 55.4615 68.4565 55.4173C67.8427 53.6007 67.4624 51.5374 67.0449 49.6677C66.9273 49.1413 66.8176 48.6135 66.7051 48.0857C66.5827 47.768 66.4345 47.462 66.29 47.1532C66.137 46.8265 66.0137 46.4844 65.8796 46.1497C65.8716 46.1305 65.9031 46.1154 65.913 46.1342Z" fill="#263238"/>
<path d="M68.7867 53.4657C70.2933 52.6173 76.588 49.3635 77.9962 48.7501C78.0937 48.7074 78.145 48.7577 78.049 48.8145C73.5969 51.4635 70.3437 52.7635 68.8225 53.5226C68.7848 53.5414 68.7486 53.4873 68.7867 53.4657Z" fill="#263238"/>
<path d="M241.253 177.029H97.8506L118.586 59.5974H261.988L241.253 177.029Z" fill="#C2C2C2"/>
<path d="M167.665 47.436H120.733L118.586 59.5974H168.811L167.665 47.436Z" fill="#C2C2C2"/>
<g opacity="0.1">
<path d="M241.253 177.029H97.8506L118.586 59.5974H261.988L241.253 177.029Z" fill="#C2C2C2"/>
<path d="M167.665 47.436H120.733L118.586 59.5974H168.811L167.665 47.436Z" fill="#C2C2C2"/>
</g>
<path d="M115.67 52.3969C115.484 51.7154 115.443 51.0334 115.435 50.3519C115.441 49.6699 115.483 48.9884 115.67 48.3069C115.856 48.9884 115.898 49.6704 115.905 50.3519C115.897 51.0339 115.855 51.7154 115.67 52.3969Z" fill="#263238"/>
<path d="M111.499 53.6015C110.997 53.1038 110.619 52.5342 110.272 51.9481C109.936 51.3544 109.631 50.743 109.451 50.0596C109.954 50.5568 110.332 51.1265 110.679 51.7131C111.013 52.3071 111.319 52.9186 111.499 53.6015Z" fill="#263238"/>
<path d="M108.491 56.7266C107.807 56.5462 107.195 56.2416 106.6 55.9074C106.012 55.5606 105.442 55.1836 104.944 54.6816C105.629 54.8612 106.241 55.1657 106.835 55.5009C107.422 55.8487 107.993 56.2251 108.491 56.7266Z" fill="#263238"/>
<path d="M107.45 60.9354C106.768 61.1206 106.085 61.1625 105.402 61.1704C104.72 61.1634 104.037 61.122 103.354 60.9354C104.037 60.7493 104.72 60.7075 105.402 60.7004C106.085 60.7084 106.767 60.7503 107.45 60.9354Z" fill="#263238"/>
<path d="M108.656 65.1001C108.158 65.6016 107.587 65.9785 107.001 66.3259C106.406 66.661 105.794 66.9655 105.109 67.1451C105.607 66.6431 106.178 66.2662 106.765 65.9193C107.36 65.5851 107.972 65.2801 108.656 65.1001Z" fill="#263238"/>
<path d="M111.786 68.1045C111.605 68.7874 111.3 69.3989 110.966 69.993C110.618 70.58 110.241 71.1497 109.738 71.6465C109.918 70.9631 110.223 70.3516 110.559 69.758C110.906 69.1719 111.284 68.6022 111.786 68.1045Z" fill="#263238"/>
<path d="M116 69.1436C116.185 69.8255 116.227 70.507 116.235 71.1885C116.228 71.8701 116.187 72.552 116 73.2335C115.813 72.552 115.772 71.8701 115.765 71.1885C115.773 70.507 115.815 69.8255 116 69.1436Z" fill="#263238"/>
<path d="M120.171 67.9395C120.673 68.4372 121.05 69.0068 121.398 69.5929C121.734 70.1865 122.039 70.798 122.219 71.4814C121.716 70.9841 121.339 70.4145 120.991 69.8279C120.657 69.2334 120.352 68.6224 120.171 67.9395Z" fill="#263238"/>
<path d="M123.18 64.814C123.864 64.9944 124.476 65.299 125.071 65.6332C125.659 65.9801 126.229 66.357 126.727 66.859C126.042 66.6794 125.43 66.3749 124.835 66.0397C124.249 65.6924 123.678 65.3155 123.18 64.814Z" fill="#263238"/>
<path d="M124.221 60.6051C124.903 60.4199 125.586 60.3781 126.269 60.3701C126.951 60.3772 127.634 60.4185 128.316 60.6051C127.634 60.7912 126.951 60.8331 126.269 60.8401C125.586 60.8321 124.903 60.7908 124.221 60.6051Z" fill="#263238"/>
<path d="M123.015 56.4407C123.513 55.9392 124.084 55.5623 124.67 55.215C125.265 54.8803 125.877 54.5753 126.562 54.3958C126.064 54.8977 125.493 55.2747 124.906 55.6215C124.311 55.9557 123.699 56.2603 123.015 56.4407Z" fill="#263238"/>
<path d="M119.885 53.4365C120.066 52.7536 120.37 52.1421 120.705 51.548C121.052 50.961 121.43 50.3913 121.933 49.8945C121.753 50.5779 121.448 51.1894 121.112 51.783C120.764 52.3691 120.386 52.9388 119.885 53.4365Z" fill="#263238"/>
<path d="M241.043 177.029H97.3316L76.9277 63.8604H220.639L241.043 177.029Z" fill="#D2D2D2"/>
<path d="M126.726 133.042C130.025 133.042 132.699 130.371 132.699 127.077C132.699 123.782 130.025 121.112 126.726 121.112C123.427 121.112 120.753 123.782 120.753 127.077C120.753 130.371 123.427 133.042 126.726 133.042Z" fill="#263238"/>
<path d="M173.946 133.042C177.245 133.042 179.919 130.371 179.919 127.077C179.919 123.782 177.245 121.112 173.946 121.112C170.647 121.112 167.973 123.782 167.973 127.077C167.973 130.371 170.647 133.042 173.946 133.042Z" fill="#263238"/>
<path d="M158.915 133.994L158.588 133.369C158.557 133.313 155.472 127.617 149.263 127.617C143.601 127.617 142.22 132.98 142.164 133.208L141.997 133.891L140.627 133.561L140.792 132.877C140.808 132.81 142.474 126.207 149.263 126.207C156.341 126.207 159.699 132.449 159.838 132.715L160.166 133.339L158.915 133.994Z" fill="#263238"/>
<path fill-rule="evenodd" clip-rule="evenodd" d="M232.545 126.661C232.235 126.74 231.923 126.813 231.61 126.881L231.4 125.903C231.7 125.838 232 125.768 232.298 125.692L232.545 126.661Z" fill="#263238"/>
<path fill-rule="evenodd" clip-rule="evenodd" d="M262.231 20.8189C261.669 20.9842 260.996 21.2008 260.241 21.4783L259.896 20.5397C260.673 20.254 261.368 20.0306 261.948 19.8596L262.231 20.8189ZM256.394 23.1711C255.233 23.7722 254.017 24.4898 252.805 25.3421L252.23 24.5242C253.483 23.6429 254.738 22.9023 255.935 22.2829L256.394 23.1711ZM249.572 28.0002C248.6 28.9351 247.67 29.9769 246.815 31.1364L246.01 30.5432C246.901 29.3347 247.869 28.2507 248.879 27.2795L249.572 28.0002ZM244.648 34.7022C244.348 35.3145 244.068 35.9519 243.812 36.6154C243.591 37.1885 243.391 37.7586 243.211 38.3251L242.258 38.0223C242.444 37.4364 242.651 36.8473 242.879 36.2556C243.146 35.5643 243.437 34.8998 243.751 34.2613L244.648 34.7022ZM242.342 41.826C242.124 43.0469 242 44.2438 241.963 45.4101L240.964 45.3789C241.002 44.1631 241.131 42.9179 241.357 41.6503L242.342 41.826ZM242.134 49.0004C242.291 50.2178 242.549 51.3889 242.897 52.5049L241.943 52.8032C241.577 51.6308 241.307 50.4027 241.142 49.1287L242.134 49.0004ZM252.47 56.1528C251.146 56.1602 249.751 56.274 248.345 56.5205L248.172 55.5356C249.637 55.2788 251.087 55.1605 252.465 55.1529L252.47 56.1528ZM258.568 56.985C257.985 56.7938 257.319 56.6268 256.586 56.4936L256.765 55.5097C257.536 55.6499 258.247 55.8274 258.879 56.0349L258.726 56.5013L258.879 56.0349C259.58 56.2649 260.202 56.5368 260.747 56.8424L260.259 57.7148C259.775 57.4438 259.213 57.197 258.568 56.985ZM244.277 55.8084C244.848 56.8759 245.514 57.8689 246.264 58.7763L245.494 59.4138C245.035 58.8588 244.606 58.2741 244.21 57.662C242.99 58.1367 241.81 58.7361 240.709 59.4777L240.151 58.6482C241.269 57.8953 242.458 57.2838 243.681 56.7955C243.583 56.6254 243.488 56.4535 243.395 56.2797L244.277 55.8084ZM261.891 63.3279C262.695 62.4597 262.967 61.3269 262.596 60.2319L263.543 59.9106C264.041 61.3784 263.659 62.8903 262.624 64.0076L261.891 63.3279ZM248.812 61.2723C249.744 62.009 250.753 62.6453 251.829 63.1694L251.391 64.0684C250.25 63.5125 249.179 62.8376 248.192 62.0566L248.812 61.2723ZM237.652 62.1818C236.8 63.1724 236.051 64.3088 235.441 65.6082L234.536 65.1831C235.185 63.8009 235.983 62.5882 236.894 61.5295L237.652 62.1818ZM255.182 64.3774C255.755 64.5173 256.341 64.6288 256.939 64.7106C257.593 64.8002 258.201 64.8088 258.757 64.7521L258.859 65.7469C258.219 65.8122 257.532 65.801 256.803 65.7014C256.171 65.6149 255.551 65.497 254.945 65.3489L255.182 64.3774ZM234.159 69.5025C234.023 70.1548 233.915 70.8372 233.838 71.5507C233.759 72.27 233.717 72.9723 233.709 73.659L232.709 73.6468C232.718 72.9278 232.762 72.1933 232.843 71.4424C232.925 70.6978 233.038 69.9835 233.181 69.2984L234.159 69.5025ZM234.077 77.8436C234.344 79.2479 234.744 80.5923 235.245 81.8914L234.312 82.251C233.792 80.9026 233.374 79.5002 233.095 78.0301L234.077 77.8436ZM237.047 85.7293C237.729 86.9744 238.478 88.1866 239.259 89.3824L238.422 89.9291C237.632 88.7202 236.868 87.4848 236.17 86.2096L237.047 85.7293ZM241.665 92.945C242.485 94.1422 243.299 95.3396 244.064 96.5481L243.219 97.083C242.465 95.8913 241.66 94.7073 240.84 93.5099L241.665 92.945ZM246.227 100.334C246.883 101.653 247.441 103.008 247.849 104.417L246.888 104.695C246.5 103.356 245.967 102.057 245.332 100.779L246.227 100.334ZM248.572 108.774C248.602 109.499 248.587 110.238 248.522 110.994C248.469 111.61 248.371 112.217 248.23 112.814L247.257 112.586C247.387 112.034 247.477 111.475 247.526 110.909C247.587 110.195 247.601 109.498 247.573 108.815L248.572 108.774ZM246.922 116.237C246.356 117.293 245.66 118.298 244.858 119.24L244.096 118.592C244.857 117.699 245.511 116.753 246.04 115.765L246.922 116.237ZM242.267 121.779C241.348 122.537 240.355 123.233 239.307 123.857L238.795 122.998C239.802 122.398 240.753 121.732 241.631 121.008L242.267 121.779ZM236.079 125.479C235.524 125.71 234.959 125.923 234.388 126.116L234.068 125.168C234.618 124.983 235.16 124.779 235.694 124.556L236.079 125.479Z" fill="#263238"/>
<path fill-rule="evenodd" clip-rule="evenodd" d="M263.781 20.414C263.631 20.4472 263.408 20.499 263.122 20.5724L262.873 19.6039C263.171 19.5275 263.405 19.473 263.566 19.4375C263.647 19.4197 263.709 19.4067 263.752 19.3979L263.801 19.3881L263.814 19.3855L263.818 19.3847L263.819 19.3845C263.819 19.3845 263.82 19.3844 263.913 19.8757C264.005 20.3671 264.005 20.3671 264.005 20.3671L264.003 20.3675L263.993 20.3694L263.951 20.3778C263.914 20.3855 263.857 20.3974 263.781 20.414Z" fill="#263238"/>
<path d="M271.377 17.2801C270.176 13.5652 262.137 14.9 263.706 19.7533C265.275 24.607 272.578 20.995 271.377 17.2801Z" fill="#263238"/>
<path d="M259.333 15.7821C259.393 14.1531 261.663 12.8996 264.871 13.4777C268.079 14.0562 271.101 16.214 271.101 16.214C271.101 16.214 267.929 18.1519 264.687 18.4936C261.444 18.8357 259.273 17.4191 259.333 15.7821Z" fill="#EBEBEB"/>
<path d="M271.1 16.214C269.434 16.2253 267.771 16.1698 266.107 16.1191C264.444 16.0481 262.782 15.9823 261.121 15.8479C262.787 15.8357 264.45 15.8921 266.114 15.9428C267.777 16.0143 269.44 16.0805 271.1 16.214Z" fill="#263238"/>
<path d="M262.557 14.3396C263.039 14.5549 263.484 14.8279 263.933 15.0958C264.371 15.3816 264.812 15.6627 265.216 16.0015C264.734 15.7867 264.288 15.5137 263.84 15.2448C263.401 14.9595 262.961 14.6785 262.557 14.3396Z" fill="#263238"/>
<path d="M266.917 16.0608C266.496 16.4185 266.037 16.7188 265.582 17.0238C265.115 17.3115 264.651 17.6043 264.15 17.8388C264.572 17.4811 265.031 17.1803 265.486 16.8758C265.953 16.5881 266.417 16.2963 266.917 16.0608Z" fill="#263238"/>
<path d="M267.402 15.1433C267.651 15.25 267.857 15.4093 268.066 15.5649C268.262 15.736 268.462 15.9028 268.619 16.1233C268.37 16.0171 268.164 15.8573 267.955 15.7017C267.759 15.5301 267.56 15.3628 267.402 15.1433Z" fill="#263238"/>
<path d="M262.389 25.4516C263.392 26.738 265.967 26.4292 268.231 24.0867C270.495 21.7437 271.682 18.229 271.682 18.229C271.682 18.229 267.974 18.5096 265.144 20.1259C262.314 21.7418 261.382 24.1591 262.389 25.4516Z" fill="#EBEBEB"/>
<path d="M271.683 18.2285C270.325 19.192 269.008 20.2087 267.689 21.2215C266.382 22.2504 265.071 23.275 263.803 24.3532C265.161 23.3901 266.478 22.373 267.797 21.3602C269.104 20.3313 270.414 19.3067 271.683 18.2285Z" fill="#263238"/>
<path d="M265.85 24.738C266.114 24.2816 266.316 23.8004 266.523 23.3205C266.711 22.8331 266.904 22.3476 267.033 21.8367C266.768 22.2926 266.566 22.7743 266.36 23.2542C266.172 23.7416 265.98 24.2271 265.85 24.738Z" fill="#263238"/>
<path d="M268.38 20.7957C267.828 20.752 267.28 20.7759 266.732 20.7943C266.185 20.8333 265.637 20.8671 265.094 20.9691C265.645 21.0133 266.193 20.9893 266.742 20.9705C267.288 20.931 267.836 20.8967 268.38 20.7957Z" fill="#263238"/>
<path d="M269.311 21.2567C269.449 21.0249 269.523 20.7754 269.602 20.5272C269.661 20.2734 269.726 20.0215 269.724 19.7512C269.584 19.9829 269.511 20.2325 269.432 20.4807C269.373 20.7345 269.309 20.9869 269.311 21.2567Z" fill="#263238"/>
<path d="M271.377 17.28C270.636 17.5188 269.841 17.1127 269.602 16.3725C269.363 15.6322 269.769 14.8388 270.51 14.5996C271.251 14.3604 272.046 14.7669 272.285 15.5072C272.525 16.2474 272.118 17.0413 271.377 17.28Z" fill="#455A64"/>
<path d="M272.242 19.9605C271.501 20.1993 270.707 19.7932 270.467 19.0529C270.228 18.3127 270.635 17.5193 271.376 17.2801C272.117 17.0413 272.912 17.4474 273.151 18.1877C273.39 18.9275 272.984 19.7213 272.242 19.9605Z" fill="#455A64"/>
</svg>
